<svg xmlns="http://www.w3.org/2000/svg" width="512" height="512"><path fill="#9C516B" d="M343.344 35.13c5.279 4.277 10.312 8.814 15.224 13.505a443.802 443.802 0 0 0 4.17 3.908c27.789 26.582 41.962 58.258 43.192 96.402.353 18.69-1.388 37.387-4.696 55.771-1.335 7.612-1.583 13.45 2.266 20.409 5.116 9.31 4.752 20.496 1.938 30.563-5.135 14.74-15.182 25.34-28.579 33.035-2.984 1.333-5.624 1.89-8.859 2.277l1 1c1.397-.032 2.793-.101 4.188-.187 4.752-.038 7.147 1.022 10.812 4.187 13.14 13.14 19.006 38.215 19.098 56.46-.275 11.947-2.726 22.633-11.098 31.54a292.34 292.34 0 0 1-4.562 3.875c-7.627 6.659-9.997 15.411-13.188 24.75l-.928 2.712c-1.728 5.25-2.834 10.154-3.322 15.663.668.23 1.337.461 2.025.7 35.126 12.197 59.701 25.745 76.663 60.3.35.694.702 1.387 1.064 2.102 2.174 4.645 2.612 7.774 1.248 12.898-2 2-2 2-4.875 2.375-3.125-.375-3.125-.375-5.5-2.25C439 505 439 505 439 503h-47l-1 4c-2 2-2 2-4.875 2.375-3.125-.375-3.125-.375-5.5-2.25C379 505 379 505 379 503h-35l-1 4c-2 2-2 2-4.875 2.375-3.125-.375-3.125-.375-5.5-2.25C331 505 331 505 331 503H181l-2 5c-2.799 1.4-4.905 1.253-8 1-1.875-1.312-1.875-1.312-3-3v-3h-35l-2 5c-2.799 1.4-4.905 1.253-8 1-1.875-1.312-1.875-1.312-3-3v-3H73l-2 5c-6.236 1.44-6.236 1.44-9.5-.437-2.127-3.634-1.458-6.632-.5-10.563 1.267-3.218 2.84-6.22 4.5-9.25l1.36-2.523A119.021 119.021 0 0 1 80 466l2.105-2.633C97.3 445.268 120.311 438.154 142 431c-.9-10.161-4.542-19.465-8-29l-1.152-3.203c-2.526-5.909-6.623-9.443-11.391-13.558-8.752-7.778-11.648-17.8-12.457-29.239-.24-6.244.488-11.94 1.688-18.062l.54-2.785c2.99-14.742 7.3-30.682 18.772-41.153 3.008-1.901 5.159-2.208 8.688-2.062 1.436.054 2.874.082 4.312.062l1-1-2.645-.32c-11.727-2.376-21.238-11.946-28.234-21.153-7.284-11.227-10.082-24.199-7.578-37.386 1.087-3.965 2.426-7.227 4.707-10.641 1.77-3.539 1.943-4.159 1.484-7.812l-.325-2.686L111 208l-.448-3.299c-.335-2.428-.673-4.855-1.012-7.282-6.336-46.001-5.665-87.62 23.272-125.856L134 70l2.035-2.719C160.698 35.727 195.437 13.106 235 6l3.07-.562c37.45-4.17 75.569 6.298 105.274 29.692ZM171 333a390.953 390.953 0 0 0-1.062 5.125l-.598 2.883c-.938 8.253 3.006 13.56 7.66 19.992a415.526 415.526 0 0 0 4.938 5.813C190.6 377 196.048 388.659 201 401c8.706-7.538 8.922-21.47 9.738-32.082L211 365l-2.824-1.8c-12.648-8.177-23.662-17.366-34.13-28.18-1.685-2.137-1.685-2.137-3.046-2.02Zm167.716 1.218-1.638 1.712C326 347.356 314.672 356.726 301 365c.714 19.561.714 19.561 10 36l1.504-3.55c5.264-12.258 11.2-22.704 19.621-33.075 8.342-9.36 8.342-9.36 10.75-21.062A118.64 118.64 0 0 0 342 339l-.562-3.562L341 333c-1.174-.115-1.174-.115-2.284 1.218Z"/><path fill="#FEB2A8" d="M284.625 85.563C292.7 91.013 299.952 97.367 306 105c3.828 3.141 7.594 4.633 12.25 6.313 15.784 5.89 25.408 16.954 32.75 31.687 1.586 3.61 2.873 7.222 4 11l.797 2.61c1.8 6.504 2.853 13.096 3.828 19.765l.373 2.537c1.81 13.06 2.272 26.17 2.315 39.338l.007 2.366c.008 19.954-2.867 39.184-8.32 58.384l-2.012.262c-5.847.93-9.202 1.853-12.988 6.738-1.357 2.715-.963 4.651-.781 7.68.953 21.68.953 21.68-3.969 28.257A107.816 107.816 0 0 1 329 327c-.935.984-1.86 1.976-2.777 2.977C311.883 345.375 294.74 356.818 275 364l-3.16 1.258c-14.94 5.63-28.956 2.234-43.059-4.09-18.094-8.546-34.557-21.12-47.781-36.168l-1.867-2.08c-5.746-7.106-5.927-12.83-5.383-21.733.112-2.38.212-4.762.297-7.144l.182-3.156c-.271-3.42-1.188-5.157-3.229-7.887-4.265-2.714-8.043-3.366-13-4-6.69-29.891-14.758-66.122-4-96l2 1a82.745 82.745 0 0 0 5.313-.375l2.863-.273c2.736-.291 2.736-.291 5.029-.866 3.459-.601 6.844-.63 10.342-.619l2.21-.003c1.547 0 3.093.001 4.64.006 2.304.005 4.608 0 6.912-.007 8.5-.001 16.927.215 25.399.963 1.76.135 3.527.164 5.292.174l2-2c.05-2.542.05-2.542-1-5-2.112-1.44-2.112-1.44-4.75-2.25-.861-.315-1.722-.63-2.61-.953-18.346-5.537-40.398-1.707-57.488 6.25C158 180 158 180 156 180c1.968-8.745 8.503-13.786 15.375-18.938 16.628-12.492 25.572-28.79 32.89-47.896C209.894 98.498 217.598 86.989 232 80c17.842-7.323 36.25-4.184 52.625 5.563Z"/><path fill="#B16A87" d="m282 20 1.944.472c39.928 9.703 73.612 38.531 94.95 72.981 11.126 18.466 14.518 36.789 14.418 58.172l-.002 2.293c-.046 18.6-2.143 36.76-5.31 55.082l-4.688-.684c-3.433-.47-6.873-.89-10.312-1.316l-.196-2.557C369.041 154.436 369.041 154.436 343 113c-6.956-5.772-14.708-9.601-23.121-12.809-5.823-2.448-9.09-6.616-13.192-11.312-13.101-14.035-32.776-22.877-51.914-24.082-16.022-.221-30.258 4.297-42.585 14.766-10.777 10.603-15.652 22.683-21.1 36.524-6.563 16.46-15.537 28.347-29.775 39.038C147.906 165.199 142.569 176.473 140 193c-.46 4.33-.79 8.65-1 13-5.033 1.573-9.76 2.394-15 3-.652-3.936-1.296-7.874-1.938-11.813l-.552-3.333c-2.012-12.4-2.72-24.498-2.75-37.04-.01-2.48-.041-4.958-.073-7.437-.18-27.47 8.235-50.051 25.313-71.377l2.074-2.691C160.746 56.678 178.797 41.627 200 31l2.111-1.074C213.984 23.982 226.001 20.568 239 18l2.957-.613C255.342 15.686 268.995 16.54 282 20Z"/><path fill="#FEA29B" d="m223 371 1.8.61a4809.4 4809.4 0 0 0 8.2 2.765l2.832.96c12.21 4.1 21.005 5.64 33.543 1.853l2.71-.792A417.403 417.403 0 0 0 289 371l.288 1.737c3.939 23.93 3.939 23.93 17.962 43.075 3.579 3.376 3.564 7.096 4.137 11.805.685 3.78 1.92 6.915 3.425 10.445 3.388 7.96 5.499 16.09 7.57 24.472.83 3.312 1.712 6.61 2.594 9.908C331 495.015 331 495.015 331 503H181c.696-6.963 1.581-13.26 3.258-19.969l.685-2.787c.479-1.937.962-3.873 1.448-5.808.724-2.898 1.429-5.8 2.132-8.702 2.45-9.92 5.216-19.474 9.204-28.897 1.752-4.18 2.766-7.903 3.21-12.462.695-5.56 2.846-7.713 6.97-11.328C218.788 402.407 220.922 385.304 223 371Z"/><path fill="#FDC0B5" d="M351.563 290.938 354 291c4.09 9.463 7.698 19.081 11.249 28.756.944 2.57 1.893 5.139 2.843 7.707l1.826 4.963.85 2.295c6.45 17.631 6.977 36.959-.768 54.279-1.16 2.723-2.3 5.455-3.438 8.188l-.889 2.129C356.447 421.734 353.851 439.27 363 462l1.283 3.23a1302.51 1302.51 0 0 0 11.17 27.189l1.387 3.276 1.257 2.946C379 501 379 501 379 503h-35c-2.71-10.02-5.258-20.033-7.551-30.157-4.798-21.387-4.798-21.387-12.824-41.718-3.903-9.501-3.012-22.657.438-32.125a128.22 128.22 0 0 1 2.937-6l1.469-2.93c3.686-6.811 8.283-12.662 13.175-18.622 8.09-9.91 13.265-18.431 12.356-31.448-.66-4.884-1.542-9.717-2.438-14.563-1.972-11.082-3.77-22.144-3.562-33.437 1-1 1-1 3.563-1.063ZM158 291a99.984 99.984 0 0 1 5 0l1 1c-.218 11.316-1.921 22.64-3.797 33.785C156.826 345.11 156.826 345.11 164 363c2.158 2.954 4.441 5.801 6.746 8.641 12.623 15.6 20.957 31.15 19.623 51.681-.759 5.51-2.967 10.468-5.097 15.568-6.447 15.464-9.592 32.122-13.269 48.42l-.706 3.127-.614 2.747c-.8 3.296-1.751 6.554-2.683 9.816h-35c1.858-5.575 3.683-10.858 5.926-16.246l1.657-4.01.858-2.07a1824.202 1824.202 0 0 0 6.833-16.865 2528.5 2528.5 0 0 1 1.917-4.762c9.39-23.681 3.188-43.195-6.298-65.898A369.005 369.005 0 0 1 141 386l-1.11-2.818c-2.698-7.37-3.597-13.978-3.515-21.807l.032-3.462c.258-9.23 2.002-16.71 5.5-25.184 1.348-3.367 2.577-6.773 3.8-10.186 8.018-22.302 8.018-22.302 12.293-31.543Z"/><path fill="#FDA29B" d="M142 444c1.302 3.905.397 5.165-1.14 8.941l-1.482 3.674a8843.11 8843.11 0 0 1-1.628 3.947 4676.17 4676.17 0 0 0-1.636 4.026C130.88 477.45 125.452 490.23 120 503H73c1.563-4.689 3.243-8.599 5.688-12.813l1.074-1.86C82.779 483.2 86.157 478.545 90 474l1.723-2.23C104.017 456.604 124.107 450.067 142 444Z"/><path fill="#FEA29B" d="M369 444c31.981 11.002 53.863 23.874 69.223 55.11C439 501 439 501 439 503h-47l-7.563-17.875-2.338-5.515c-3.463-8.192-6.865-16.406-10.126-24.68l-.913-2.29c-1.178-3.021-2.06-5.367-2.06-8.64Z"/><path fill="#FDDEDE" d="M155 262c2.52.45 3.882.902 5.875 2.563 2.867 1.939 4.717 1.715 8.125 1.437l2.688-.625C174 265 174 265 177 267l2 6c2.74 2.272 2.74 2.272 5.438 1.813C187 275 187 275 189.313 277c2.25 4 1.834 6.444 1.687 11 1.635 3.125 1.635 3.125 4.125 3.688L197 292c.625 3.375.625 3.375 1 7l-2 2c-.318 1.91-.318 1.91-.25 4l-.016 2.125c.109 2.119.109 2.119 2.266 3.875-.375 3.625-.375 3.625-1 7l-2.375.813c-2.906 1.035-2.906 1.035-4.625 4.187a97.813 97.813 0 0 0 0 7c-4 0-4 0-6-1.758l-2-2.367-2-2.32-2-2.555-2.246-2.457c-2.75-5.554-2.053-11.011-1.816-17.106.085-2.417.157-4.835.214-7.253l.125-3.233c-.322-3.432-1.225-5.207-3.277-7.951-4.227-2.69-8.047-3.505-13-4-.505-2.082-1.004-4.166-1.5-6.25l-.844-3.516C155 266 155 266 155 262ZM354 262h3c-.515 5.853-1.454 11.33-3 17l-2.012.262c-5.847.93-9.202 1.853-12.988 6.738-1.357 2.715-.963 4.651-.781 7.68.94 21.695.94 21.695-4.469 28.757-2.39 2.497-2.39 2.497-4.75 4.563a945.002 945.002 0 0 0-4 4l-3-1 .188-3.25c-.196-3.917-.43-5.091-3.188-7.75l-2.125-.875L315 317c-.75-3.125-.75-3.125-1-6l3-2c.476-1.902.476-1.902.375-4l.023-2.125c-.257-2.286-.257-2.286-3.398-3.875l1-7 2.375-.75c2.66-1.028 2.66-1.028 4-3 .848-2.356.848-2.356-.063-5.188C321 280 321 280 323.125 277.125c3.228-2.386 4.06-2.223 7.875-2.125 2.811-2.15 3.987-3.971 5.5-7.188C338 265 338 265 340.063 264H342l2 2c1.921.137 1.921.137 4-.188l2.125-.23c2.267-.488 2.267-.488 3.875-3.582Z"/><path fill="#FD6C73" d="m223 371 4.313 1.46c1.895.64 3.791 1.277 5.687 1.915l2.832.96c12.21 4.1 21.005 5.64 33.543 1.853l2.71-.792c5.684-1.672 11.305-3.494 16.915-5.396l2 16c-22.584 9.156-39.173 13.124-62.527 3.555-2.515-1.133-4.999-2.335-7.473-3.555l2-16Z"/><path fill="#FBA09A" d="M139 218v17h-8c-2.11 1.024-2.11 1.024-3 3-.417 2.542-.417 2.542 0 5 2.557 2.557 4.556 2.632 8.027 3.242 2.693 1.034 3.436 2.33 4.973 4.758.8 2.701.8 2.701 1.387 5.754l.654 3.338.647 3.47.681 3.483C146 275.507 146 275.507 146 279c-9.213-2.303-17.626-9.748-22.7-17.645-4.895-8.665-8.09-16.96-5.683-26.906 2.238-6.524 5.641-10.647 11.383-14.449 3.77-1.668 5.849-2 10-2Z"/><path fill="#FCA09A" d="M374 219c7.127.492 11.313 2.015 16.25 7.5 4.85 6.929 4.574 14.298 3.75 22.5-2.418 10.522-10.378 20.687-19.375 26.547C368.572 279 368.572 279 366 279l.813-3.813a161.6 161.6 0 0 0 1.847-10.94l.358-2.55c.236-1.697.457-3.395.665-5.095.528-3.733.915-6.06 3.192-9.133 2.918-2.017 5.644-2.082 9.125-2.469l2-2c-.323-3.597-.323-3.597-1-7l-10-1 1-16Z"/><path fill="#9E536C" d="m229.953 293.672 3.567.015 3.73.063 3.684.016c9.773.085 9.773.085 14.3.812 2.717.687 2.717.687 4.766-.578 4.147-.078 8.287.096 12.431.242 2.06.07 4.121.125 6.182.178l3.918.13 3.612.115C289 295 289 295 291 297c.125 2.438.125 2.438-1 5-2.545 1.42-5.197 2.23-8 3l-1.828.55c-4.188.867-8.5.857-12.762 1.071-3.217.358-5.466 1.114-8.41 2.379-6.234.437-6.234.437-8.738-.992-3.224-1.437-6.418-1.304-9.887-1.383-6.33-.28-13.166-.609-18.375-4.625-.941-2.453-.941-2.453-1-5 2.427-3.537 4.868-3.364 8.953-3.328Z"/><path fill="#9D526C" d="m355 179 2 2c-.375 2.125-.375 2.125-1 4-1.688-.143-3.375-.29-5.063-.438-.94-.08-1.879-.162-2.847-.246a116.706 116.706 0 0 1-6.327-.827c-3.737-.486-7.301-.618-11.068-.622l-2.053-.003c-2.172-.002-4.344.004-6.517.011h-4.475c-8.974.015-17.867.284-26.798 1.2C288 184 288 184 286.098 182.671 285 181 285 181 284.812 178.562c1.57-3.385 3.403-4.112 6.692-5.667 19.965-7.155 44.72-2.943 63.496 6.105Z"/><path fill="#9E536D" d="M183 213c3.662 1.378 7.133 2.912 10.668 4.59 7.097 3.004 14.141 2.47 21.695 2.283l2.496-.033 2.265-.051C222 220 222 220 224 222c.063 2.375.063 2.375-1 5-7.11 5.62-15.279 5.69-24 5-7.49-1.634-13.902-4.88-20.508-8.672-3.13-1.668-6.042-2.561-9.492-3.328.344-2.497.847-3.822 2.5-5.75 3.911-1.956 7.292-2.01 11.5-1.25ZM337 213c2.29 1.132 3.987 2.39 6 4l-1 4-3.25.625c-3.854.946-7.11 2.482-10.625 4.313-9.923 5.072-18.857 7.464-30.125 6.062-3.44-1.142-6.425-2.412-9-5-.855-2.55-.855-2.55-1-5 2-2 2-2 3.904-2.18l2.315.09 2.561.068 2.72.084c9.547.146 16.502-1.163 25.125-5.25 4.462-2.038 7.483-2.454 12.375-1.812Z"/><path fill="#9F546D" d="M242 257c6.462.462 6.462.462 9 3 3.994.594 7.81.876 11.125-1.563L264 257c3.625.125 3.625.125 7 1 2 3 2 3 2.063 5.375-1.966 4.856-6.433 6.912-11.063 8.938-7.083 1.623-11.429.36-17.766-2.829-2.407-1.6-3.754-3.01-5.234-5.484.24-3.37.588-4.588 3-7Z"/><path fill="#9D526C" d="m250.344 315.602 2.527-.012 2.629.035 2.629-.035 2.527.012 2.307.01c2.593.494 3.494 1.267 5.037 3.388.063 3.5.063 3.5-1 7-4.283 3.494-9.042 3.515-14.367 3.348-3.812-.504-5.923-1.638-8.633-4.348-1.063-3.063-1.063-3.063-1-6 2.17-2.922 3.776-3.383 7.344-3.398Z"/><path fill="#F69B97" d="m137 304 3 1c-1.975 6.974-4.348 13.695-7 20.438-5.465 14.267-7.567 26.3-8 41.562-4.232-4.232-3.353-11.174-3.39-16.856.275-15.244 5.728-34.274 15.39-46.144Z"/><path fill="#F69C97" d="M372 305c2.313.184 2.313.184 5 1 5.917 7.865 8.36 18.633 11 28l.754 2.422c1.39 5.015 1.445 10.032 1.496 15.203l.029 2.174c-.03 4.751-.787 8.688-2.279 13.201h-1l-.113-3.48a5964.27 5964.27 0 0 0-.2-4.707l-.068-2.272c-.58-12.623-4.71-24.101-9.307-35.728-.767-1.96-1.532-3.92-2.293-5.882-.68-1.752-1.368-3.5-2.057-5.248C372 307 372 307 372 305Z"/><path fill="#A15871" d="M161 258c7.603.603 7.603.603 10 3-.556 4.556-.556 4.556-2 6-3.473.309-5.387.387-8.375-1.5L159 264c.875-4.875.875-4.875 2-6Z"/><path fill="#A25A73" d="M312 299c4.556.556 4.556.556 6 2 .273 5.736.273 5.736 0 8l-2 2c-4.556-.556-4.556-.556-6-2-.273-5.736-.273-5.736 0-8l2-2Z"/><path fill="#A25770" d="M197 299c4.556.556 4.556.556 6 2 .273 5.736.273 5.736 0 8l-2 2c-4.556-.556-4.556-.556-6-2-.273-5.736-.273-5.736 0-8l2-2Z"/><path fill="#A15770" d="M178 266c6.126.454 6.126.454 9 2.25 1 1.75 1 1.75.688 4.438L187 275c-2.188.75-2.188.75-5 1-2.813-1.625-2.813-1.625-5-4-.375-2.688-.375-2.688 0-5l1-1Z"/><path fill="#A15871" d="M353 259v6c-3.116 1.847-5.382 2.38-9 2-2-2-2-2-2.125-4.625L342 260c3.77-2.564 6.674-1.832 11-1Z"/><path fill="#A0566F" d="m193 318 5 1c.998 3.174 1.13 4.656-.063 7.813C196 329 196 329 192.813 329.313L190 329c-.75-2.688-.75-2.688-1-6 1.938-2.875 1.938-2.875 4-5Z"/><path fill="#A15770" d="M319.188 280.688 322 281c.75 2.125.75 2.125 1 5-1.938 3.313-1.938 3.313-4 6l-5-1c-.998-3.174-1.13-4.656.063-7.813C316 281 316 281 319.188 280.688Z"/><path fill="#A0566F" d="M192 280c1.938.063 1.938.063 4 1 1.813 2.25 1.813 2.25 3 5-.313 2.813-.313 2.813-1 5l-5 1c-2.272-2.461-2.974-3.736-3.313-7.125C190 282 190 282 192 280Z"/><path fill="#9E546D" d="M315 318c3.059.242 4.581.596 6.813 2.75 1.395 2.643 1.506 4.3 1.187 7.25-1 1-1 1-3.375 1.313C317 329 317 329 315.187 327.375c-1.486-2.972-1.479-5.093-1.187-8.375l1-1Z"/><path fill="#9E546E" d="M334 266c1 1 1 1 1.313 3.313-.313 2.687-.313 2.687-2 5-2.717 1.981-4.025 2.131-7.313 1.687-1-1-1-1-1.313-3.313.313-2.687.313-2.687 2-5 2.717-1.981 4.025-2.131 7.313-1.687Z"/></svg>